<svg width="75" height="36" viewBox="0 0 75 36" fill="none" xmlns="http://www.w3.org/2000/svg"><path fill-rule="evenodd" clip-rule="evenodd" d="M17.7127 18.0702L29.7953 11.0952C32.6393 9.45267 33.6128 5.81665 31.9703 2.97414C30.3293 0.130127 26.6933 -0.843377 23.8493 0.79613L2.97217 12.8517L17.7127 18.0702Z" fill="#EA4335"></path><path fill-rule="evenodd" clip-rule="evenodd" d="M26.8184 35.9999C28.8735 35.9999 30.8715 34.9334 31.9725 33.0268C33.615 30.1828 32.64 26.5468 29.796 24.9058L8.91887 12.8503C6.07486 11.2093 2.43885 12.1843 0.797844 15.0283C-0.844663 17.8708 0.130341 21.5068 2.97435 23.1493L23.8514 35.2034C24.7874 35.7434 25.8104 35.9999 26.8184 35.9999Z" fill="#4285F4"></path><path fill-rule="evenodd" clip-rule="evenodd" d="M47.5876 35.9999C48.5956 35.9999 49.6186 35.7434 50.5546 35.2034L71.4317 23.1493L56.8786 17.8213L44.6101 24.9058C41.766 26.5468 40.791 30.1828 42.4321 33.0269C43.5346 34.9334 45.5326 35.9999 47.5876 35.9999Z" fill="#FBBC04"></path><path fill-rule="evenodd" clip-rule="evenodd" d="M68.4542 23.9457C70.5092 23.9457 72.5072 22.8807 73.6082 20.9727C75.2492 18.1287 74.2757 14.4927 71.4317 12.8517L50.5531 0.79613C47.7106 -0.843377 44.0746 0.130127 42.4321 2.97414C40.791 5.81665 41.766 9.45267 44.6101 11.0952L65.4871 23.1492C66.4231 23.6892 67.4461 23.9457 68.4542 23.9457Z" fill="#0F9D58"></path></svg>
